<svg width="1024" height="1024" viewBox="0 0 1024 1024" xmlns="http://www.w3.org/2000/svg">
  <defs>
    <linearGradient id="flame" x1="512" y1="636" x2="512" y2="748" gradientUnits="userSpaceOnUse">
      <stop offset="0" stop-color="#FFD54A"/>
      <stop offset="1" stop-color="#FF8A34"/>
    </linearGradient>
    <radialGradient id="port" cx="512" cy="462" r="46" gradientUnits="userSpaceOnUse">
      <stop offset="0" stop-color="#8FE9FF"/>
      <stop offset="1" stop-color="#0E7C86"/>
    </radialGradient>
    <filter id="shadow" x="-20%" y="-20%" width="140%" height="140%">
      <feDropShadow dx="0" dy="14" stdDeviation="18" flood-color="#003b2b" flood-opacity="0.28"/>
    </filter>
  </defs>
  <!-- Rocket group scaled to Android adaptive-icon safe zone (~66% center) -->
  <g transform="translate(512 512) scale(0.82) translate(-512 -512)" filter="url(#shadow)">
    <path d="M470 640 C 482 702 500 744 512 746 C 524 744 542 702 554 640 C 540 654 524 660 512 660 C 500 660 484 654 470 640 Z" fill="url(#flame)"/>
    <path d="M492 648 C 500 690 508 718 512 720 C 516 718 524 690 532 648 C 524 658 500 658 492 648 Z" fill="#FFF2B8"/>
    <path d="M452 556 C 412 592 392 636 392 668 L 456 626 Z" fill="#E9FBF3"/>
    <path d="M572 556 C 612 592 632 636 632 668 L 568 626 Z" fill="#CDEFE1"/>
    <path d="M512 292 C 574 366 592 452 592 524 C 592 588 568 632 512 646 C 456 632 432 588 432 524 C 432 452 450 366 512 292 Z" fill="#FFFFFF"/>
    <circle cx="512" cy="462" r="46" fill="url(#port)"/>
    <circle cx="512" cy="462" r="46" fill="none" stroke="#E4FBF3" stroke-width="8"/>
    <circle cx="498" cy="448" r="12" fill="#EAFCFF" opacity="0.85"/>
  </g>
</svg>
